# File produced by Open Asset Import Library (http://www.assimp.sf.net)
# (assimp v5.0.1588609223)

mtllib result.mtl

# 68 vertex positions
v  -877.78406 74.665009 2922.8379
v  -869.01013 146.19627 2899.7231
v  -839.11554 146.19626 2811.1233
v  -862.23016 74.664986 2802.3494
v  -750.51569 146.19626 2841.0181
v  -741.74182 74.664993 2817.9033
v  -780.41034 146.19629 2929.6179
v  -757.29572 74.665016 2938.3918
v  -876.63422 3.1337204 2803.4993
v  -742.89166 3.1337318 2803.4993
v  -742.89166 3.1337547 2937.2419
v  -876.63422 3.1337433 2937.2419
v  -762.90607 194.38376 2933.6211
v  -734.05249 194.38376 2842.2009
v  -689.33234 307.16135 2830.6809
v  -690.51184 307.6279 2908.0144
v  -607.74341 432.32117 2819.8806
v  -620.91809 430.59296 2901.8086
v  -844.51721 221.4747 2805.5913
v  -874.48553 222.13358 2898.4048
v  -917.79498 278.57806 2910.1753
v  -878.43231 274.01443 2796.665
v  -794.02557 303.92188 2906.7859
v  -846.60083 285.65137 2932.3
v  -807.73804 281.52579 2818.8516
v  -790.71844 301.04907 2822.5344
v  -871.33093 402.71509 2892.5938
v  -862.13354 398.34958 2794.6533
v  -831.64032 513.78534 2802.2915
v  -838.39453 515.89288 2867.2942
v  -936.80444 356.04288 2905.8506
v  -931.38983 348.84451 2802.1013
v  -873.92596 349.57242 2798.3696
v  -881.00525 355.64337 2904.8413
v  -631.88281 478.80362 2807.5527
v  -649.12286 477.41187 2887.1482
v  -604.28613 620.64197 2858.9375
v  -590.24127 624.64471 2813.144
v  -668.2063 431.08783 2897.5354
v  -654.30884 431.20636 2810.1934
v  -572.82593 622.74231 2820.0469
v  -585.35803 618.95648 2864.6213
v  -610.20203 476.51141 2892.8381
v  -594.05237 479.06381 2817.8584
v  -598.80371 468.97662 2829.2944
v  -610.26086 467.23257 2884.032
v  -523.1355 482.31714 2883.9341
v  -519.66895 483.87775 2851.5154
v  -606.34137 442.21561 2830.2522
v  -616.91699 440.76767 2889.5542
v  -518.0946 466.41977 2850.7712
v  -464.13245 525.2168 2860.3909
v  -457.79901 517.67584 2859.6692
v  -521.15979 465.03986 2886.479
v  -458.3815 517.41357 2880.6755
v  -464.96738 524.84094 2879.4216
v  -869.10822 509.84753 2804.771
v  -874.89941 512.77521 2869.2852
v  -919.86572 402.60641 2893.5195
v  -912.86499 396.46307 2798.05
v  -1011.2773 432.85287 2833.0911
v  -1010.2942 436.69446 2876.8235
v  -1079.9763 518.64062 2855.4995
v  -1078.9702 519.79633 2875.2502
v  -1017.6138 413.68018 2882.3389
v  -1017.6248 409.81583 2832.2634
v  -1088.8859 510.62033 2854.8799
v  -1087.9172 511.81412 2877.6255

# 0 UV coordinates

# 64 vertex normals
vn -51.79607 10.416722 -11.258681
vn 11.258678 10.416713 -51.79607
vn 51.79607 10.416726 11.258675
vn -11.258677 10.416735 51.79607
vn 4.2022407e-06 -54.019428 8.8008819e-06
vn 47.915936 -23.416513 8.5923586
vn 46.127731 -27.835802 3.936954
vn -42.817238 -29.983921 -13.628926
vn -4.0844588 0.62580043 53.861156
vn 11.406593 -2.9121575 -52.721039
vn 16.680456 -3.3005519 -51.273464
vn -16.645252 0.50154555 51.38855
vn -51.129795 -4.4414115 -16.855751
vn 48.444328 -17.925014 15.809475
vn 51.879757 -13.959015 5.6334004
vn -48.226398 -22.725843 -8.7091551
vn 42.034222 33.147312 7.2442098
vn 7.6513686 0.74988341 -53.469547
vn -9.1721067 8.0211086 52.6273
vn -50.702927 14.226244 -12.038522
vn -27.320145 46.001289 -7.4558387
vn -37.893364 38.245457 -4.4132175
vn 6.849237 -10.608642 -52.522789
vn -2.0661044 4.9356809 53.753777
vn 3.3519788 53.622944 5.6074028
vn 52.134552 -7.2918539 12.12089
vn -9.5959482 12.544488 51.658997
vn 15.99651 -2.0882471 -51.55434
vn 12.450021 -7.339004 -52.050312
vn -5.8195243 12.824403 52.151382
vn -9.6348171 53.152 0.36556023
vn -49.170319 20.484856 -8.986042
vn 51.719826 -13.13626 8.4021816
vn 52.135265 -10.649268 9.3062592
vn 51.441513 -14.541812 7.7720447
vn 51.721092 -11.403322 10.629745
vn 4.5617509 4.5877185 -53.6306
vn -1.2137946 9.9203053 53.086849
vn 13.818031 -2.1157753 -52.179348
vn 13.724709 -52.245171 0.41550633
vn 40.830254 35.312267 2.0081501
vn 34.771889 -41.327148 1.0398365
vn -32.032394 43.484943 -1.0413668
vn -1.4860239 7.7038212 53.446629
vn -5.2787838 53.698032 -2.5989444
vn 1.3855389 11.231401 52.820778
vn -3.8820598 4.6283226 -53.680603
vn -50.120419 19.491093 -5.1126614
vn 18.621033 50.629692 -2.8266857
vn -3.4669785 -3.2456431 -53.810261
vn 1.0075182 13.444641 52.309891
vn 52.672371 -11.004582 4.7559643
vn 41.548965 34.289543 -4.0011239
vn -4.2508202 14.76545 51.788136
vn -16.343761 3.4094803 -51.37466
vn -31.196373 -44.052132 2.0722458
vn -36.079903 40.20002 -0.54594922
vn 8.9474392 8.6845608 52.560635
vn -8.3086519 6.5503244 -52.973179
vn -43.836979 -31.443979 2.7738457
vn -3.2866719 4.6197224 53.721077
vn 53.721085 4.6197252 3.2866669
vn 3.2866716 4.6197047 -53.721077
vn -53.721077 4.6197166 -3.2866733

# Mesh 'Cube.006' with 64 faces
g Cube.006
usemtl DeadOakTreeTrunk
f  1//1 2//1 3//1 4//1
f  4//2 3//2 5//2 6//2
f  6//3 5//3 7//3 8//3
f  8//4 7//4 2//4 1//4
f  9//5 10//5 11//5 12//5
f  13//6 14//6 15//6 16//6
f  16//7 15//7 17//7 18//7
f  19//8 20//8 21//8 22//8
f  20//9 13//9 16//9 23//9 24//9 21//9
f  14//10 19//10 22//10 25//10 26//10 15//10
f  5//11 3//11 19//11 14//11
f  2//12 7//12 13//12 20//12
f  3//13 2//13 20//13 19//13
f  7//14 5//14 14//14 13//14
f  27//15 28//15 29//15 30//15
f  22//16 21//16 31//16 32//16
f  24//17 25//17 33//17 34//17
f  25//18 22//18 32//18 33//18
f  21//19 24//19 34//19 31//19
f  35//20 36//20 37//20 38//20
f  23//21 26//21 25//21 24//21
f  26//22 23//22 39//22 40//22
f  15//23 26//23 40//23 17//23
f  23//24 16//24 18//24 39//24
f  41//25 38//25 37//25 42//25
f  43//26 44//26 41//26 42//26
f  36//27 43//27 42//27 37//27
f  44//28 35//28 38//28 41//28
f  17//29 40//29 35//29 44//29
f  39//30 18//30 43//30 36//30
f  45//31 46//31 47//31 48//31
f  40//32 39//32 36//32 35//32
f  49//33 50//33 18//33 17//33
f  50//34 46//34 43//34 18//34
f  45//35 49//35 17//35 44//35
f  46//36 45//36 44//36 43//36
f  51//37 48//37 52//37 53//37
f  46//38 50//38 54//38 47//38
f  49//39 45//39 48//39 51//39
f  50//40 49//40 51//40 54//40
f  55//41 53//41 52//41 56//41
f  54//42 51//42 53//42 55//42
f  48//43 47//43 56//43 52//43
f  47//44 54//44 55//44 56//44
f  30//45 29//45 57//45 58//45
f  59//46 27//46 30//46 58//46
f  28//47 60//47 57//47 29//47
f  60//48 59//48 58//48 57//48
f  59//49 60//49 61//49 62//49
f  33//50 32//50 60//50 28//50
f  31//51 34//51 27//51 59//51
f  34//52 33//52 28//52 27//52
f  62//53 61//53 63//53 64//53
f  31//54 59//54 62//54 65//54
f  60//55 32//55 66//55 61//55
f  32//56 31//56 65//56 66//56
f  67//57 68//57 64//57 63//57
f  65//58 62//58 64//58 68//58
f  61//59 66//59 67//59 63//59
f  66//60 65//60 68//60 67//60
f  11//61 8//61 1//61 12//61
f  10//62 6//62 8//62 11//62
f  9//63 4//63 6//63 10//63
f  12//64 1//64 4//64 9//64

